<?xml version="1.0"?>
<svg version="1.1" id="topsvg"
xmlns="http://www.w3.org/2000/svg" xmlns:xlink="http://www.w3.org/1999/xlink"
xmlns:cml="http://www.xml-cml.org/schema" x="0" y="0" width="200px" height="200px" viewBox="0 0 100 100">
<title> - Open Babel Depiction</title>
<rect x="0" y="0" width="100" height="100" fill="white"/>
<g transform="translate(0,0)">
<svg width="100" height="100" x="0" y="0" viewBox="0 0 253.205 160"
font-family="sans-serif" stroke="rgb(0,0,0)" stroke-width="2"  stroke-linecap="round">
<line x1="210.2" y1="87.0" x2="210.2" y2="60.0" opacity="1.0" stroke="rgb(0,0,0)"  stroke-width="2.0"/>
<line x1="216.2" y1="87.0" x2="216.2" y2="60.0" opacity="1.0" stroke="rgb(0,0,0)"  stroke-width="2.0"/>
<line x1="213.2" y1="60.0" x2="178.6" y2="40.0" opacity="1.0" stroke="rgb(0,0,0)"  stroke-width="2.0"/>
<line x1="178.6" y1="40.0" x2="143.9" y2="60.0" opacity="1.0" stroke="rgb(0,0,0)"  stroke-width="2.0"/>
<line x1="143.9" y1="60.0" x2="120.5" y2="46.5" opacity="1.0" stroke="rgb(0,0,0)"  stroke-width="2.0"/>
<line x1="143.9" y1="60.0" x2="143.9" y2="100.0" opacity="1.0" stroke="rgb(0,0,0)"  stroke-width="2.0"/>
<line x1="145.4" y1="102.6" x2="107.8" y2="117.4" opacity="1.0" stroke="rgb(0,0,0)"  stroke-width="2.0"/>
<line x1="142.4" y1="97.4" x2="110.8" y2="122.6" opacity="1.0" stroke="rgb(0,0,0)"  stroke-width="2.0"/>
<line x1="109.3" y1="120.0" x2="74.6" y2="100.0" opacity="1.0" stroke="rgb(0,0,0)"  stroke-width="2.0"/>
<line x1="74.6" y1="100.0" x2="51.3" y2="113.5" opacity="1.0" stroke="rgb(0,0,0)"  stroke-width="2.0"/>
<text x="209.205081" y="108.000000" fill="rgb(102,102,102)" stroke-width='0' font-weight='bold' font-size="16" >CH</text>
<text x="233.205081" y="111.680000" fill="rgb(102,102,102)" stroke-width='0' font-weight='bold' font-size="13" >2</text>
<text x="83.282032" y="48.000000" fill="rgb(12,12,255)" stroke-width='0' font-weight='bold' font-size="16" >H</text>
<text x="95.282032" y="51.680000" fill="rgb(12,12,255)" stroke-width='0' font-weight='bold' font-size="13" >2</text>
<text x="101.782032" y="48.000000" fill="rgb(12,12,255)" stroke-width='0' font-weight='bold' font-size="16" >N</text>
<text x="14.000000" y="128.000000" fill="rgb(102,102,102)" stroke-width='0' font-weight='bold' font-size="16" >H</text>
<text x="26.000000" y="131.680000" fill="rgb(102,102,102)" stroke-width='0' font-weight='bold' font-size="13" >3</text>
<text x="32.500000" y="128.000000" fill="rgb(102,102,102)" stroke-width='0' font-weight='bold' font-size="16" >C</text>
</svg>
</g>
<text font-size="18.000000" fill ="black" font-family="sans-serif"
x="10.000000" y="20.000000" ></text>
</svg>
